<?xml version="1.0" encoding="utf-8"?>
<!-- Generator: Adobe Illustrator 26.1.0, SVG Export Plug-In . SVG Version: 6.00 Build 0)  -->
<svg version="1.1" id="Слой_1" xmlns="http://www.w3.org/2000/svg" xmlns:xlink="http://www.w3.org/1999/xlink" x="0px" y="0px"
	 viewBox="0 0 139 65" style="enable-background:new 0 0 139 65;" xml:space="preserve">
<style type="text/css">
	.st0{fill:#EF0A16;}
	.st1{fill:none;}
	.st2{fill:#FFFFFF;}
	.st3{font-family:'Impact';}
	.st4{font-size:21.9014px;}
	.st5{font-size:10.5127px;}
</style>
<g>
	<path class="st0" d="M24.73,31.41c0,12.7,10.08,23.04,22.65,23.4v5.68c-15.7-0.37-28.31-13.26-28.31-29.08S31.68,2.7,47.38,2.33
		v5.68C34.81,8.38,24.73,18.71,24.73,31.41z"/>
</g>
<g>
	<path class="st0" d="M33.24,31.13c0,6.73,4.59,12.24,10.38,12.66v6.76c-9.05-0.42-16.27-8.95-16.27-19.41s7.23-18.99,16.27-19.42
		v6.76C37.83,18.89,33.24,24.39,33.24,31.13z"/>
</g>
<rect x="39.18" y="21.7" class="st1" width="38.28" height="42.72"/>
<text transform="matrix(1 0 0 1 39.1865 39.0249)" class="st2 st3 st4">АВТ</text>
<rect x="45.08" y="41.5" class="st1" width="70.92" height="45.93"/>
<text transform="matrix(1 0 0 1 45.0815 49.8145)" class="st2 st3 st5">тюмень</text>
</svg>
